PathFileType	4	(X/Y/Z)	D:\Share\Shared_Data\Ergonomics\Sit To Stand Pertubation\S1\Perturbed_NoHarness.trc
DataRate	CameraRate	NumFrames	NumMarkers	Units	OrigDataRate	OrigDataStartFrame	OrigNumFrames	
100	100	8	18	m	100	9618	191
Frame#	Time	L_ASIS			R_ASIS			R_Pelvis			V_Sacral			L_Pelvis			Clavical			R_Acromium			L_Acromium			Sternum			Torso			R_Thigh_Med			R_Thigh_Lat			R_Thigh			R_Shank_Med			R_Shank_Lat			R_Shank			R_Heel			R_Toe			
		X1	Y1	Z1	X2	Y2	Z2	X3	Y3	Z3	X4	Y4	Z4	X5	Y5	Z5	X6	Y6	Z6	X7	Y7	Z7	X8	Y8	Z8	X9	Y9	Z9	X10	Y10	Z10	X11	Y11	Z11	X12	Y12	Z12	X13	Y13	Z13	X14	Y14	Z14	X15	Y15	Z15	X16	Y16	Z16	X17	Y17	Z17	X18	Y18	Z18	

9618	96.17	0.45645175	0.9051748	-0.11120251	0.43977832	0.89888409	0.087678085	0.36020755	0.91053229	0.13040195	0.26685077	0.89932166	-0.02131185	0.37067905	0.90819086	-0.1644836	0.44522794	1.2520635	-0.017650785	0.38264703	1.3245664	0.13138112	0.33425677	1.2800504	-0.21344966	0.43068207	1.2651489	0.084613213	0.44018195	1.2581283	-0.076215767	0.34911908	0.41994925	0.04073243	0.37579901	0.44334009	0.1655426	0.44874796	0.60858295	0.10214233	0.34945917	0.099583923	0.097422577	0.33028937	0.10037666	0.17858017	0.34563904	0.31193591	0.19060497	0.28281339	0.042858959	0.13352487	0.48871738	0.045354473	0.13524358
9619	96.18	0.45862619	0.90520233	-0.11121341	0.44181079	0.89893341	0.087556969	0.36208594	0.91051105	0.13006296	0.26908505	0.89942639	-0.021625546	0.37290372	0.90815778	-0.16467874	0.44525986	1.2522516	-0.017810757	0.38234509	1.3245271	0.1312132	0.3340929	1.2796733	-0.21361984	0.43062408	1.2652482	0.084425026	0.44019315	1.2582356	-0.076434708	0.34823074	0.42021341	0.040463665	0.37490784	0.443465	0.16619145	0.44927786	0.60813678	0.10252728	0.34938608	0.099734138	0.097541962	0.33012936	0.10040162	0.17869077	0.34491354	0.31198663	0.19101511	0.28281561	0.042752865	0.13341168	0.48871014	0.045354103	0.13526659
9620	96.19	0.46073816	0.90519904	-0.1112299	0.44379584	0.8989552	0.087446594	0.36393063	0.91046564	0.12970389	0.27126059	0.89950983	-0.02191555	0.37506256	0.90810278	-0.16485947	0.44527325	1.2523999	-0.017957649	0.38203152	1.3244554	0.13105252	0.33393423	1.2792849	-0.21378987	0.43054761	1.2653129	0.0842481	0.44019632	1.2583085	-0.076640785	0.34743283	0.4204411	0.040314976	0.37411066	0.44358533	0.16679745	0.44982373	0.60770392	0.10288158	0.34931647	0.099877388	0.097660156	0.32997849	0.10043147	0.17880217	0.34424963	0.31203619	0.19140402	0.28281445	0.042624954	0.13328227	0.4887009	0.045354393	0.13529044
9621	96.2	0.46278223	0.90516711	-0.11125843	0.44572751	0.89895215	0.087345848	0.3657392	0.910396	0.12932019	0.27337323	0.89957227	-0.022184128	0.37715128	0.90802704	-0.1650294	0.44526999	1.252511	-0.018092781	0.38170996	1.3243525	0.13089954	0.33378088	1.2788851	-0.21395871	0.43045609	1.2653445	0.084081665	0.44019351	1.2583491	-0.076835045	0.34674841	0.42062326	0.040338757	0.3734144	0.4436987	0.16735667	0.45039093	0.60728638	0.10320415	0.34925165	0.10001196	0.097775299	0.32983859	0.10046551	0.17891255	0.34365442	0.31208398	0.19176793	0.28281	0.042476776	0.13313792	0.48869019	0.045354782	0.13531462
9622	96.21	0.46475293	0.90510858	-0.11130426	0.44759903	0.89892682	0.087253792	0.3675072	0.91030225	0.12890967	0.27541797	0.8996131	-0.022433283	0.37916519	0.90793164	-0.16519215	0.44525278	1.2525873	-0.018217705	0.38138464	1.3242189	0.13075429	0.33363348	1.2784734	-0.21412511	0.43035373	1.2653445	0.083924644	0.4401871	1.2583593	-0.077018822	0.34619876	0.42075244	0.040578819	0.37282556	0.44380237	0.16786572	0.45098422	0.60688599	0.10349448	0.34919324	0.1001362	0.097885201	0.32971164	0.10050282	0.17901961	0.34313486	0.31212933	0.19210306	0.2828027	0.042311245	0.13298088	0.48867877	0.045354702	0.13533861
9623	96.22	0.46664502	0.90502582	-0.11137115	0.44940363	0.89888214	0.087169579	0.36922928	0.91018549	0.12847307	0.27738971	0.89963184	-0.022664616	0.3810994	0.9078175	-0.16535143	0.44522473	1.2526315	-0.018334185	0.38106064	1.3240562	0.13061678	0.33349301	1.2780497	-0.21428778	0.43024509	1.2653145	0.083775803	0.4401796	1.2583402	-0.077193619	0.34580112	0.42082336	0.041064934	0.37234943	0.44389389	0.1683221	0.45160748	0.60650458	0.10375253	0.34914301	0.10024862	0.097987572	0.32959958	0.1005424	0.17912106	0.34269693	0.31217148	0.19240602	0.28279297	0.042133087	0.13281497	0.48866742	0.045353584	0.13536176
9624	96.23	0.46845404	0.90492175	-0.11146129	0.45113519	0.89882123	0.087092308	0.3708992	0.9100481	0.12801437	0.2792836	0.89962805	-0.022879282	0.38294897	0.90768597	-0.16551099	0.44518939	1.2526456	-0.018444153	0.38074326	1.3238666	0.13048657	0.33336115	1.2776145	-0.21444554	0.43013498	1.2652566	0.083633698	0.44017365	1.2582937	-0.077361084	0.34556625	0.42083411	0.041808666	0.37198947	0.44397122	0.16872433	0.45226337	0.60614355	0.10397886	0.34910266	0.10034807	0.098080208	0.32950412	0.10058315	0.17921455	0.34234531	0.31220963	0.19267407	0.28278159	0.041949093	0.13264572	0.48865689	0.04535096	0.1353835
9625	96.24	0.47017654	0.90479956	-0.11157523	0.452789	0.89874744	0.08702092	0.37251044	0.90989288	0.12754056	0.28109555	0.89960132	-0.023077951	0.38470905	0.90753857	-0.16567491	0.44515051	1.2526324	-0.01854969	0.38043808	1.3236536	0.13036307	0.33323975	1.2771691	-0.21459738	0.43002817	1.2651737	0.08349675	0.44017175	1.2582219	-0.077522964	0.34549744	0.42078619	0.042801338	0.37174631	0.44403287	0.16907214	0.45295282	0.60580408	0.10417444	0.3490737	0.10043387	0.098161209	0.32942654	0.10062403	0.17929808	0.34208234	0.31224329	0.19290547	0.28276944	0.04176799	0.13248035	0.48864783	0.045346474	0.13540324
